<svg width="106" height="26" viewBox="0 0 106 26" fill="none" xmlns="http://www.w3.org/2000/svg">
<g clip-path="url(#clip0_58_876)">
<path d="M17.7259 13.8225C14.5781 13.8225 12.0521 16.3372 12.0521 19.4709C12.0521 22.6047 14.5781 25.1194 17.7259 25.1194C20.8738 25.1194 23.3998 22.6047 23.3998 19.4709C23.3998 16.3372 20.8738 13.8225 17.7259 13.8225ZM17.7259 21.2119C16.6378 21.2119 15.8217 20.3994 15.8217 19.3162C15.8217 18.2329 16.6378 17.4205 17.7259 17.4205C18.8141 17.4205 19.6302 18.2329 19.6302 19.3162C19.5913 20.4381 18.7752 21.2119 17.7259 21.2119Z" fill="#099BC3"/>
<path d="M17.7259 0.805237C14.5781 0.805237 12.0521 3.31995 12.0521 6.45367C12.0521 9.58738 14.5781 12.1021 17.7259 12.1021C20.8738 12.1021 23.3998 9.58738 23.3998 6.45367C23.3609 3.31995 20.8738 0.805237 17.7259 0.805237ZM17.7259 8.23331C16.6378 8.23331 15.8217 7.42087 15.8217 6.33761C15.8217 5.25435 16.6378 4.4419 17.7259 4.4419C18.8141 4.4419 19.6302 5.25435 19.6302 6.33761C19.6302 7.42087 18.7752 8.23331 17.7259 8.23331Z" fill="#099BC3"/>
<path d="M6.49511 7.22638C3.34731 7.22638 0.821289 9.74109 0.821289 12.8748C0.821289 16.0085 3.34731 18.5232 6.49511 18.5232C9.64292 18.5232 12.1689 16.0085 12.1689 12.8748C12.1689 9.74109 9.64292 7.22638 6.49511 7.22638ZM6.49511 14.6544C5.40698 14.6544 4.59088 13.842 4.59088 12.7587C4.59088 11.6755 5.40698 10.863 6.49511 10.863C7.58324 10.863 8.39934 11.6755 8.39934 12.7587C8.36048 13.8807 7.54438 14.6544 6.49511 14.6544Z" fill="#099BC3"/>
<path d="M36.5319 13.8425C36.5319 10.7475 34.0059 8.23279 30.8969 8.23279H28.9538V9.62555C28.7595 8.81311 28.0211 8.23279 27.1273 8.23279C26.0781 8.23279 25.262 9.08392 25.262 10.0898V13.8425V17.5953C25.262 18.6398 26.1169 19.4523 27.1273 19.4523C28.1766 19.4523 28.9927 18.6011 28.9927 17.5953V13.8425C28.9927 12.798 29.8477 11.9855 30.8581 11.9855C31.9073 11.9855 32.7234 12.8366 32.7234 13.8425V17.5953C32.7234 18.6398 33.5784 19.4523 34.5888 19.4523C35.6381 19.4523 36.4542 18.6011 36.4542 17.5953L36.5319 13.8425Z" fill="#FEFFF9"/>
<path d="M84.564 13.8425C84.564 10.7475 82.038 8.23279 78.929 8.23279H76.9859V9.62555C76.7916 8.81311 76.0533 8.23279 75.1594 8.23279C74.1102 8.23279 73.2941 9.08392 73.2941 10.0898V13.8425V17.5953C73.2941 18.6398 74.149 19.4523 75.1594 19.4523C76.2087 19.4523 77.0248 18.6011 77.0248 17.5953V13.8425C77.0248 12.798 77.8798 11.9855 78.8902 11.9855C79.9394 11.9855 80.7555 12.8366 80.7555 13.8425V17.5953C80.7555 18.6398 81.6105 19.4523 82.6209 19.4523C83.6702 19.4523 84.4863 18.6011 84.4863 17.5953L84.564 13.8425Z" fill="#FEFFF9"/>
<path d="M95.0961 15.7381L96.9615 13.8811C96.9615 10.7861 94.4354 8.27136 91.3265 8.27136C88.2175 8.27136 85.6915 10.7861 85.6915 13.8811C85.6915 16.9761 88.2175 19.4908 91.3265 19.4908H95.0961C96.1454 19.4908 96.9615 18.6397 96.9615 17.6338C96.9615 16.6279 96.1454 15.7381 95.0961 15.7381ZM90.4715 15.506C89.8497 15.1965 89.4611 14.5775 89.4611 13.8424C89.4611 12.7978 90.3161 11.9854 91.3265 11.9854C92.0649 11.9854 92.6867 12.411 92.9975 12.9913L90.4715 15.506Z" fill="#FEFFF9"/>
<path d="M59.4208 8.42615C58.4881 7.9619 57.3611 8.34878 56.8948 9.27728L54.8351 13.4169L52.7365 9.27728C52.2702 8.34878 51.1432 7.9619 50.2105 8.42615C49.2778 8.89041 48.8892 10.0124 49.3556 10.9409L53.0474 18.2916C53.3972 18.9879 53.9024 19.4522 54.7962 19.4522C55.6512 19.4522 56.1952 18.9106 56.545 18.2916L60.2369 10.9409C60.7421 10.0124 60.3535 8.89041 59.4208 8.42615Z" fill="#FEFFF9"/>
<path d="M43.2922 8.23279C40.1832 8.23279 37.6572 10.7475 37.6572 13.8425C37.6572 16.9376 40.1832 19.4523 43.2922 19.4523C46.4011 19.4523 48.9271 16.9376 48.9271 13.8425C48.9271 10.7475 46.4011 8.23279 43.2922 8.23279ZM43.2922 15.7382C42.2429 15.7382 41.4268 14.8871 41.4268 13.8812C41.4268 12.8753 42.2818 12.0242 43.2922 12.0242C44.3415 12.0242 45.1576 12.8753 45.1576 13.8812C45.1576 14.8871 44.3415 15.7382 43.2922 15.7382Z" fill="#FEFFF9"/>
<path d="M66.2987 15.7382C65.2495 15.7382 64.4334 14.8871 64.4334 13.8812C64.4334 12.8366 65.2883 12.0242 66.2987 12.0242C67.348 12.0242 68.1641 12.8753 68.1641 13.8812C68.203 14.8871 67.348 15.7382 66.2987 15.7382ZM71.9726 13.8425C71.9726 10.7475 69.4465 8.23279 66.3376 8.23279C63.2287 8.23279 60.7026 10.7475 60.7026 13.8425C60.7026 16.9376 63.2287 19.4523 66.3376 19.4523H68.2807V18.0595C68.475 18.8719 69.2134 19.4523 70.1072 19.4523C71.1565 19.4523 71.9726 18.6011 71.9726 17.5953V13.8425Z" fill="#FEFFF9"/>
<path d="M101.974 17.5955C101.974 18.6401 101.119 19.4525 100.109 19.4525C99.0594 19.4525 98.2433 18.6014 98.2433 17.5955V5.91177C98.2433 4.86719 99.0982 4.05475 100.109 4.05475C101.158 4.05475 101.974 4.90588 101.974 5.91177V8.23304H103.839C104.889 8.23304 105.705 9.08417 105.705 10.0901C105.705 11.1346 104.85 11.9471 103.839 11.9471C102.79 11.9471 101.974 12.7982 101.974 13.8041V17.5955Z" fill="#FEFFF9"/>
</g>
<defs>
<clipPath id="clip0_58_876">
<rect width="104.927" height="24.2573" fill="white" transform="translate(0.816284 0.802734)"/>
</clipPath>
</defs>
</svg>
